<?xml version="1.0" encoding="utf-8"?>
<!-- Generator: Adobe Illustrator 17.1.0, SVG Export Plug-In . SVG Version: 6.00 Build 0)  -->
<!DOCTYPE svg PUBLIC "-//W3C//DTD SVG 1.1//EN" "http://www.w3.org/Graphics/SVG/1.1/DTD/svg11.dtd">
<svg version="1.1" id="Layer_1" xmlns="http://www.w3.org/2000/svg" xmlns:xlink="http://www.w3.org/1999/xlink" x="0px" y="0px"
	 viewBox="0 0 400 150" enable-background="new 0 0 400 150" xml:space="preserve">
<g>
	<g>
		<g>
			<path fill="#FFFFFF" d="M55.7,112.3c-17.5,0-31.7-14.2-31.7-31.7c0-17.5,14.2-31.7,31.7-31.7s31.7,14.2,31.7,31.7
				C87.4,98,73.2,112.3,55.7,112.3z M55.7,52.1c-15.7,0-28.4,12.8-28.4,28.4C27.3,96.3,40,109,55.7,109c15.7,0,28.4-12.8,28.4-28.4
				C84.2,64.9,71.4,52.1,55.7,52.1z"/>
			<g>
				<path fill="#FFFFFF" d="M110.8,119.4c-11.3,0-20.5-9.2-20.5-20.5c0-11.3,9.2-20.5,20.5-20.5s20.5,9.2,20.5,20.5
					C131.3,110.2,122.1,119.4,110.8,119.4z M110.8,81.7c-9.5,0-17.3,7.7-17.3,17.3c0,9.5,7.7,17.3,17.3,17.3
					c9.5,0,17.3-7.7,17.3-17.3C128,89.4,120.3,81.7,110.8,81.7z"/>
			</g>
			<g>
				<path fill="#FFFFFF" d="M180.3,116.2c-26.5,0-48.1-21.6-48.1-48.1c0-26.5,21.6-48.1,48.1-48.1c26.5,0,48.1,21.6,48.1,48.1
					C228.4,94.6,206.8,116.2,180.3,116.2z M180.3,23.3c-24.7,0-44.8,20.1-44.8,44.8c0,24.7,20.1,44.8,44.8,44.8
					c24.7,0,44.8-20.1,44.8-44.8C225.2,43.4,205,23.3,180.3,23.3z"/>
			</g>
			<g>
				<path fill="#FFFFFF" d="M250.9,65.7c-11.3,0-20.5-9.2-20.5-20.5c0-11.3,9.2-20.5,20.5-20.5c11.3,0,20.5,9.2,20.5,20.5
					C271.3,56.6,262.1,65.7,250.9,65.7z M250.9,28c-9.5,0-17.3,7.7-17.3,17.3c0,9.5,7.7,17.3,17.3,17.3c9.5,0,17.3-7.7,17.3-17.3
					C268.1,35.8,260.4,28,250.9,28z"/>
			</g>
			<g>
				<path fill="#FFFFFF" d="M323.1,27.5c27.4,0,49.6,22.3,49.6,49.6s-22.3,49.6-49.6,49.6s-49.6-22.3-49.6-49.6
					S295.8,27.5,323.1,27.5 M323.1,24.3c-29.2,0-52.8,23.7-52.8,52.8c0,29.2,23.7,52.8,52.8,52.8c29.2,0,52.8-23.7,52.8-52.8
					C375.9,47.9,352.3,24.3,323.1,24.3L323.1,24.3z"/>
			</g>
			<g>
				<path fill="#FFFFFF" d="M38.9,86.7c-0.5,0-0.9-0.1-1.3-0.2c-0.4-0.1-0.7-0.3-1-0.5c-0.3-0.2-0.5-0.5-0.7-0.9
					c-0.2-0.3-0.2-0.7-0.2-1.2v0c0-0.4,0.1-0.8,0.2-1.1c0.1-0.3,0.3-0.6,0.6-0.8s0.5-0.4,0.8-0.5c0.3-0.1,0.7-0.2,1-0.3l0.1-0.8h1.4
					l0.3,2.2l-0.1,0.1c-0.8,0-1.5,0.2-1.8,0.4c-0.4,0.2-0.5,0.5-0.5,0.9v0c0,0.3,0.1,0.5,0.3,0.7c0.2,0.2,0.5,0.2,0.9,0.2
					c0.4,0,0.7-0.1,1.1-0.2c0.3-0.2,0.6-0.4,1-0.7l1.2,1.4c-0.4,0.4-0.9,0.8-1.4,1S39.7,86.7,38.9,86.7z M38.2,77.1h2.2v2.1h-2.2
					V77.1z"/>
				<path fill="#FFFFFF" d="M51.7,85.9c-0.4,0.3-0.8,0.5-1.3,0.6s-1,0.2-1.5,0.2c-0.7,0-1.4-0.1-2-0.4s-1.1-0.6-1.6-1
					s-0.8-0.9-1-1.5c-0.2-0.6-0.4-1.2-0.4-1.9v0c0-0.7,0.1-1.3,0.4-1.9c0.2-0.6,0.6-1.1,1-1.5s1-0.8,1.6-1c0.6-0.3,1.3-0.4,2-0.4
					c0.7,0,1.4,0.1,2,0.4c0.6,0.3,1.1,0.6,1.6,1s0.8,0.9,1,1.5c0.2,0.6,0.4,1.2,0.4,1.9v0c0,0.5-0.1,1-0.2,1.4
					c-0.1,0.5-0.3,0.9-0.6,1.3l1,0.8l-1.3,1.5L51.7,85.9z M48.9,84.8c0.4,0,0.8-0.1,1.2-0.3l-1.5-1.3l1.3-1.5l1.5,1.4
					c0.2-0.4,0.3-0.8,0.3-1.3v0c0-0.4-0.1-0.8-0.2-1.1c-0.1-0.4-0.3-0.7-0.6-0.9c-0.3-0.3-0.6-0.5-0.9-0.6c-0.3-0.2-0.7-0.2-1.1-0.2
					c-0.4,0-0.8,0.1-1.1,0.2c-0.3,0.2-0.6,0.4-0.9,0.6c-0.2,0.3-0.4,0.6-0.6,0.9c-0.1,0.4-0.2,0.7-0.2,1.1v0c0,0.4,0.1,0.8,0.2,1.1
					c0.1,0.4,0.3,0.7,0.6,0.9c0.3,0.3,0.6,0.5,0.9,0.6C48.1,84.7,48.5,84.8,48.9,84.8z"/>
				<path fill="#FFFFFF" d="M60.3,86.7c-1.3,0-2.3-0.3-3-1c-0.7-0.7-1.1-1.7-1.1-3.1v-5.4h2.1v5.3c0,0.8,0.2,1.3,0.5,1.7
					s0.9,0.6,1.5,0.6c0.6,0,1.1-0.2,1.5-0.6c0.4-0.4,0.5-0.9,0.5-1.7v-5.4h2.1v5.3c0,0.7-0.1,1.3-0.3,1.9c-0.2,0.5-0.5,1-0.8,1.3
					c-0.4,0.4-0.8,0.6-1.3,0.8C61.5,86.6,60.9,86.7,60.3,86.7z"/>
				<path fill="#FFFFFF" d="M67.2,77.1h7.1V79h-5v1.9h4.4v1.8h-4.4v2h5.1v1.8h-7.1V77.1z M71.1,74l1.8,0.8l-1.7,1.6h-1.6L71.1,74z"
					/>
			</g>
		</g>
	</g>
	<g>
		<g>
			<path fill="#FFFFFF" d="M145.6,62.3h3.8c0.6,0,1.1,0.1,1.5,0.2s0.8,0.4,1.1,0.7c0.3,0.3,0.5,0.6,0.7,1c0.2,0.4,0.2,0.8,0.2,1.3v0
				c0,0.5-0.1,1-0.3,1.4c-0.2,0.4-0.5,0.8-0.8,1c-0.3,0.3-0.7,0.5-1.2,0.6c-0.5,0.1-1,0.2-1.5,0.2h-1.6v2.8h-2.1V62.3z M149.3,67.1
				c0.5,0,0.9-0.1,1.2-0.4c0.3-0.3,0.4-0.6,0.4-1v0c0-0.5-0.1-0.8-0.4-1.1s-0.7-0.4-1.2-0.4h-1.6v2.9H149.3z"/>
			<path fill="#FFFFFF" d="M155.2,62.3h4.3c1.2,0,2.1,0.3,2.7,1c0.5,0.5,0.8,1.3,0.8,2.1v0c0,0.8-0.2,1.4-0.6,1.9
				c-0.4,0.5-0.9,0.8-1.5,1.1l2.3,3.4h-2.4l-2-3h0h-1.6v3h-2.1V62.3z M159.4,66.9c0.5,0,0.9-0.1,1.2-0.4c0.3-0.2,0.4-0.6,0.4-1v0
				c0-0.4-0.1-0.8-0.4-1c-0.3-0.2-0.7-0.3-1.2-0.3h-2.1v2.7H159.4z"/>
			<path fill="#FFFFFF" d="M170.2,71.9c-0.7,0-1.4-0.1-2-0.4s-1.1-0.6-1.6-1s-0.8-0.9-1-1.5c-0.2-0.6-0.4-1.2-0.4-1.9v0
				c0-0.7,0.1-1.3,0.4-1.9c0.2-0.6,0.6-1.1,1-1.5s1-0.8,1.6-1c0.6-0.3,1.3-0.4,2-0.4s1.4,0.1,2,0.4c0.6,0.3,1.1,0.6,1.6,1
				s0.8,0.9,1,1.5s0.4,1.2,0.4,1.9v0c0,0.7-0.1,1.3-0.4,1.9s-0.6,1.1-1,1.5s-1,0.8-1.6,1C171.6,71.8,170.9,71.9,170.2,71.9z
				 M170.2,70c0.4,0,0.8-0.1,1.1-0.2s0.6-0.4,0.9-0.6c0.2-0.3,0.4-0.6,0.6-0.9c0.1-0.4,0.2-0.7,0.2-1.1v0c0-0.4-0.1-0.8-0.2-1.1
				s-0.3-0.7-0.6-0.9c-0.3-0.3-0.6-0.5-0.9-0.6c-0.3-0.2-0.7-0.2-1.1-0.2c-0.4,0-0.8,0.1-1.1,0.2c-0.3,0.2-0.6,0.4-0.9,0.6
				c-0.2,0.3-0.4,0.6-0.6,0.9c-0.1,0.4-0.2,0.7-0.2,1.1v0c0,0.4,0.1,0.8,0.2,1.1s0.3,0.7,0.6,0.9c0.3,0.3,0.6,0.5,0.9,0.6
				S169.8,70,170.2,70z"/>
			<path fill="#FFFFFF" d="M177.7,62.3h3.7c0.7,0,1.4,0.1,2,0.4c0.6,0.2,1.1,0.6,1.6,1c0.4,0.4,0.8,0.9,1,1.5s0.4,1.2,0.4,1.8v0
				c0,0.7-0.1,1.3-0.4,1.9c-0.2,0.6-0.6,1.1-1,1.5c-0.4,0.4-1,0.8-1.6,1c-0.6,0.2-1.3,0.4-2,0.4h-3.7V62.3z M181.3,69.9
				c0.4,0,0.8-0.1,1.2-0.2c0.3-0.1,0.6-0.3,0.9-0.6c0.2-0.2,0.4-0.5,0.6-0.9c0.1-0.3,0.2-0.7,0.2-1.1v0c0-0.4-0.1-0.8-0.2-1.1
				s-0.3-0.6-0.6-0.9c-0.2-0.3-0.5-0.4-0.9-0.6c-0.3-0.1-0.7-0.2-1.2-0.2h-1.6v5.7H181.3z"/>
			<path fill="#FFFFFF" d="M192.7,71.9c-1.3,0-2.3-0.3-3-1s-1.1-1.7-1.1-3.1v-5.4h2.1v5.3c0,0.8,0.2,1.3,0.5,1.7s0.9,0.6,1.5,0.6
				s1.1-0.2,1.5-0.6s0.5-0.9,0.5-1.7v-5.4h2.1v5.3c0,0.7-0.1,1.3-0.3,1.9c-0.2,0.5-0.5,1-0.8,1.3c-0.4,0.4-0.8,0.6-1.3,0.8
				C193.9,71.8,193.4,71.9,192.7,71.9z"/>
			<path fill="#FFFFFF" d="M201.8,71.9c-0.7,0-1.3-0.1-1.8-0.4c-0.5-0.3-0.9-0.6-1.2-1L200,69c0.3,0.3,0.5,0.5,0.8,0.7
				s0.6,0.2,0.9,0.2c0.4,0,0.7-0.1,0.9-0.4c0.2-0.2,0.3-0.6,0.3-1.2v-6h2.1v6.1c0,0.6-0.1,1-0.2,1.5c-0.2,0.4-0.4,0.8-0.7,1
				s-0.6,0.5-1.1,0.7C202.7,71.8,202.3,71.9,201.8,71.9z"/>
			<path fill="#FFFFFF" d="M212.4,71.9c-0.7,0-1.4-0.1-2-0.4s-1.1-0.6-1.6-1s-0.8-0.9-1-1.5c-0.2-0.6-0.4-1.2-0.4-1.9v0
				c0-0.7,0.1-1.3,0.4-1.9c0.2-0.6,0.6-1.1,1-1.5s1-0.8,1.6-1c0.6-0.3,1.3-0.4,2-0.4s1.4,0.1,2,0.4c0.6,0.3,1.1,0.6,1.6,1
				s0.8,0.9,1,1.5s0.4,1.2,0.4,1.9v0c0,0.7-0.1,1.3-0.4,1.9s-0.6,1.1-1,1.5s-1,0.8-1.6,1C213.8,71.8,213.1,71.9,212.4,71.9z
				 M212.4,70c0.4,0,0.8-0.1,1.1-0.2s0.6-0.4,0.9-0.6c0.2-0.3,0.4-0.6,0.6-0.9c0.1-0.4,0.2-0.7,0.2-1.1v0c0-0.4-0.1-0.8-0.2-1.1
				s-0.3-0.7-0.6-0.9c-0.3-0.3-0.6-0.5-0.9-0.6c-0.3-0.2-0.7-0.2-1.1-0.2c-0.4,0-0.8,0.1-1.1,0.2c-0.3,0.2-0.6,0.4-0.9,0.6
				c-0.2,0.3-0.4,0.6-0.6,0.9c-0.1,0.4-0.2,0.7-0.2,1.1v0c0,0.4,0.1,0.8,0.2,1.1s0.3,0.7,0.6,0.9c0.3,0.3,0.6,0.5,0.9,0.6
				S212,70,212.4,70z"/>
		</g>
	</g>
	<g>
		<g>
			<path fill="#FFFFFF" d="M243,40.3h7.1v1.8h-5v1.9h4.4v1.8H245v2h5.1v1.8H243V40.3z"/>
			<path fill="#FFFFFF" d="M252.7,40.3h2.1v7.5h4.7v1.9h-6.7V40.3z"/>
		</g>
	</g>
	<g>
		<g>
			<path fill="#FFFFFF" d="M282.6,72.8h5.8v1.5h-4.1v1.6h3.6v1.5h-3.6V79h4.2v1.5h-5.9V72.8z"/>
			<path fill="#FFFFFF" d="M290.5,72.8h1.6l3.6,4.7v-4.7h1.7v7.7h-1.4l-3.7-4.9v4.9h-1.7V72.8z"/>
			<path fill="#FFFFFF" d="M303.4,80.7c-0.6,0-1.1-0.1-1.6-0.3s-0.9-0.5-1.3-0.8c-0.4-0.4-0.6-0.8-0.8-1.3c-0.2-0.5-0.3-1-0.3-1.6v0
				c0-0.5,0.1-1.1,0.3-1.5c0.2-0.5,0.5-0.9,0.8-1.3s0.8-0.6,1.3-0.9c0.5-0.2,1-0.3,1.6-0.3c0.4,0,0.7,0,1,0.1
				c0.3,0.1,0.6,0.1,0.8,0.2c0.2,0.1,0.5,0.2,0.7,0.4s0.4,0.3,0.6,0.5l-1.1,1.2c-0.3-0.3-0.6-0.5-0.9-0.6c-0.3-0.2-0.7-0.2-1.1-0.2
				c-0.3,0-0.6,0.1-0.9,0.2c-0.3,0.1-0.5,0.3-0.7,0.5c-0.2,0.2-0.4,0.5-0.5,0.8c-0.1,0.3-0.2,0.6-0.2,0.9v0c0,0.3,0.1,0.6,0.2,0.9
				c0.1,0.3,0.3,0.5,0.5,0.8c0.2,0.2,0.4,0.4,0.7,0.5s0.6,0.2,0.9,0.2c0.4,0,0.8-0.1,1.1-0.2c0.3-0.2,0.6-0.4,0.9-0.7l1.1,1.1
				c-0.2,0.2-0.4,0.4-0.6,0.6c-0.2,0.2-0.4,0.3-0.7,0.4s-0.5,0.2-0.8,0.3C304.1,80.6,303.8,80.7,303.4,80.7z"/>
			<path fill="#FFFFFF" d="M311.7,80.7c-1,0-1.8-0.3-2.4-0.9c-0.6-0.6-0.9-1.4-0.9-2.6v-4.4h1.7v4.4c0,0.6,0.1,1.1,0.4,1.4
				c0.3,0.3,0.7,0.5,1.2,0.5s0.9-0.2,1.2-0.5c0.3-0.3,0.4-0.8,0.4-1.4v-4.4h1.7v4.3c0,0.6-0.1,1.1-0.2,1.5c-0.2,0.4-0.4,0.8-0.7,1.1
				c-0.3,0.3-0.6,0.5-1.1,0.6C312.6,80.6,312.2,80.7,311.7,80.7z"/>
			<path fill="#FFFFFF" d="M317.3,72.8h5.8v1.5H319v1.6h3.6v1.5H319V79h4.2v1.5h-5.9V72.8z"/>
			<path fill="#FFFFFF" d="M325.2,72.8h1.6l3.6,4.7v-4.7h1.7v7.7h-1.4l-3.7-4.9v4.9h-1.7V72.8z"/>
			<path fill="#FFFFFF" d="M336.3,74.4h-2.3v-1.6h6.4v1.6H338v6.1h-1.7V74.4z"/>
			<path fill="#FFFFFF" d="M342.2,72.8h3.5c1,0,1.7,0.3,2.2,0.8c0.4,0.4,0.7,1,0.7,1.8v0c0,0.6-0.2,1.1-0.5,1.5
				c-0.3,0.4-0.7,0.7-1.2,0.9l1.9,2.8h-2l-1.6-2.5h0h-1.3v2.5h-1.7V72.8z M345.6,76.6c0.4,0,0.7-0.1,1-0.3c0.2-0.2,0.3-0.5,0.3-0.8
				v0c0-0.4-0.1-0.6-0.4-0.8c-0.2-0.2-0.6-0.3-1-0.3h-1.7v2.2H345.6z"/>
			<path fill="#FFFFFF" d="M354.4,80.7c-0.6,0-1.1-0.1-1.6-0.3c-0.5-0.2-0.9-0.5-1.3-0.8s-0.6-0.8-0.8-1.3c-0.2-0.5-0.3-1-0.3-1.5v0
				c0-0.5,0.1-1.1,0.3-1.5c0.2-0.5,0.5-0.9,0.9-1.3c0.4-0.4,0.8-0.6,1.3-0.9c0.5-0.2,1.1-0.3,1.6-0.3c0.6,0,1.1,0.1,1.6,0.3
				c0.5,0.2,0.9,0.5,1.3,0.8c0.4,0.4,0.6,0.8,0.8,1.3c0.2,0.5,0.3,1,0.3,1.5v0c0,0.5-0.1,1.1-0.3,1.5c-0.2,0.5-0.5,0.9-0.9,1.3
				s-0.8,0.6-1.3,0.9C355.5,80.6,355,80.7,354.4,80.7z M354.4,79.1c0.3,0,0.6-0.1,0.9-0.2c0.3-0.1,0.5-0.3,0.7-0.5
				c0.2-0.2,0.4-0.5,0.5-0.8c0.1-0.3,0.2-0.6,0.2-0.9v0c0-0.3-0.1-0.6-0.2-0.9c-0.1-0.3-0.3-0.5-0.5-0.8s-0.5-0.4-0.7-0.5
				c-0.3-0.1-0.6-0.2-0.9-0.2c-0.3,0-0.7,0.1-0.9,0.2c-0.3,0.1-0.5,0.3-0.7,0.5c-0.2,0.2-0.4,0.5-0.5,0.8c-0.1,0.3-0.2,0.6-0.2,0.9
				v0c0,0.3,0.1,0.6,0.2,0.9c0.1,0.3,0.3,0.5,0.5,0.8c0.2,0.2,0.5,0.4,0.7,0.5S354.1,79.1,354.4,79.1z"/>
			<path fill="#FFFFFF" d="M361.6,76.1L361.6,76.1c0.8-0.1,1.2-0.2,1.5-0.4c0.3-0.2,0.4-0.4,0.4-0.7v0c0-0.3-0.1-0.4-0.3-0.6
				c-0.2-0.1-0.4-0.2-0.7-0.2c-0.3,0-0.6,0.1-0.9,0.2c-0.3,0.1-0.5,0.3-0.8,0.6l-1-1.1c0.3-0.3,0.7-0.6,1.1-0.9
				c0.4-0.2,1-0.3,1.6-0.3c0.4,0,0.8,0,1.1,0.1c0.3,0.1,0.6,0.2,0.8,0.4s0.4,0.4,0.5,0.7s0.2,0.6,0.2,1v0c0,0.4-0.1,0.7-0.2,0.9
				c-0.1,0.2-0.3,0.5-0.5,0.6c-0.2,0.2-0.4,0.3-0.7,0.4c-0.3,0.1-0.5,0.2-0.8,0.2l-0.1,0.7h-1.1L361.6,76.1z M361.4,78.8h1.8v1.8
				h-1.8V78.8z"/>
		</g>
	</g>
	<g>
		<g>
			<path fill="#FFFFFF" d="M104.9,95.7h-2.9v-1.9h7.8v1.9H107v7.5h-2.1V95.7z"/>
			<path fill="#FFFFFF" d="M112.1,93.8h7.1v1.8h-5v1.9h4.4v1.8h-4.4v2h5.1v1.8h-7.1V93.8z"/>
		</g>
	</g>
</g>
</svg>
