<?xml version="1.0" encoding="utf-8"?>
<!-- Generator: Adobe Illustrator 17.1.0, SVG Export Plug-In . SVG Version: 6.00 Build 0)  -->
<!DOCTYPE svg PUBLIC "-//W3C//DTD SVG 1.1//EN" "http://www.w3.org/Graphics/SVG/1.1/DTD/svg11.dtd">
<svg version="1.1" id="Layer_1" xmlns="http://www.w3.org/2000/svg" xmlns:xlink="http://www.w3.org/1999/xlink" x="0px" y="0px"
	 viewBox="0 0 400 150" enable-background="new 0 0 400 150" xml:space="preserve">
<g>
	<g>
		<g>
			<path fill="#FFFFFF" d="M37.9,116.9c-19.6,0-35.6-16-35.6-35.6c0-19.6,16-35.6,35.6-35.6s35.6,16,35.6,35.6
				C73.5,100.9,57.5,116.9,37.9,116.9z M37.9,49.3c-17.6,0-32,14.3-32,32c0,17.6,14.3,32,32,32c17.6,0,32-14.3,32-32
				C69.9,63.7,55.5,49.3,37.9,49.3z"/>
			<g>
				<path fill="#FFFFFF" d="M99.8,124.9c-12.7,0-23-10.3-23-23c0-12.7,10.3-23,23-23s23,10.3,23,23
					C122.8,114.5,112.4,124.9,99.8,124.9z M99.8,82.5c-10.7,0-19.4,8.7-19.4,19.4c0,10.7,8.7,19.4,19.4,19.4
					c10.7,0,19.4-8.7,19.4-19.4C119.1,91.2,110.4,82.5,99.8,82.5z"/>
			</g>
			<g>
				<path fill="#FFFFFF" d="M177.9,121.3c-29.8,0-54-24.2-54-54c0-29.8,24.2-54,54-54c29.8,0,54,24.2,54,54
					C231.9,97,207.6,121.3,177.9,121.3z M177.9,16.9c-27.8,0-50.4,22.6-50.4,50.4c0,27.8,22.6,50.4,50.4,50.4
					c27.8,0,50.4-22.6,50.4-50.4C228.3,39.5,205.7,16.9,177.9,16.9z"/>
			</g>
			<g>
				<path fill="#FFFFFF" d="M257.1,64.6c-12.7,0-23-10.3-23-23c0-12.7,10.3-23,23-23s23,10.3,23,23
					C280.1,54.3,269.8,64.6,257.1,64.6z M257.1,22.2c-10.7,0-19.4,8.7-19.4,19.4c0,10.7,8.7,19.4,19.4,19.4
					c10.7,0,19.4-8.7,19.4-19.4C276.5,30.9,267.8,22.2,257.1,22.2z"/>
			</g>
			<g>
				<path fill="#FFFFFF" d="M338.3,21.6c30.7,0,55.7,25,55.7,55.7s-25,55.7-55.7,55.7s-55.7-25-55.7-55.7S307.6,21.6,338.3,21.6
					 M338.3,18C305.6,18,279,44.6,279,77.4c0,32.8,26.6,59.4,59.4,59.4s59.4-26.6,59.4-59.4C397.7,44.6,371.1,18,338.3,18L338.3,18z
					"/>
			</g>
			<g>
				<path fill="#FFFFFF" d="M19,88.1c-0.5,0-1-0.1-1.5-0.2c-0.4-0.1-0.8-0.3-1.1-0.6c-0.3-0.3-0.6-0.6-0.7-1
					c-0.2-0.4-0.3-0.8-0.3-1.3v0c0-0.5,0.1-0.9,0.2-1.2c0.2-0.3,0.4-0.6,0.6-0.9s0.6-0.4,0.9-0.6c0.4-0.1,0.7-0.3,1.2-0.3l0.2-0.9
					h1.5l0.3,2.4l-0.1,0.1c-1,0-1.6,0.2-2,0.4c-0.4,0.2-0.6,0.6-0.6,1v0c0,0.3,0.1,0.6,0.4,0.8c0.2,0.2,0.6,0.3,1,0.3
					c0.4,0,0.8-0.1,1.2-0.3c0.4-0.2,0.7-0.4,1.1-0.8l1.4,1.5c-0.4,0.5-1,0.9-1.6,1.2S19.9,88.1,19,88.1z M18.2,77.4h2.4v2.4h-2.4
					V77.4z"/>
				<path fill="#FFFFFF" d="M33.3,87.2c-0.5,0.3-0.9,0.5-1.5,0.7s-1.1,0.2-1.7,0.2c-0.8,0-1.6-0.1-2.2-0.4c-0.7-0.3-1.3-0.7-1.8-1.2
					s-0.9-1.1-1.2-1.7c-0.3-0.7-0.4-1.4-0.4-2.1v0c0-0.8,0.1-1.5,0.4-2.1c0.3-0.7,0.7-1.2,1.2-1.7s1.1-0.9,1.8-1.2
					c0.7-0.3,1.4-0.4,2.3-0.4c0.8,0,1.6,0.1,2.2,0.4c0.7,0.3,1.3,0.7,1.8,1.2c0.5,0.5,0.9,1.1,1.2,1.7c0.3,0.7,0.4,1.4,0.4,2.1v0
					c0,0.6-0.1,1.1-0.2,1.6c-0.2,0.5-0.4,1-0.7,1.4l1.1,0.9l-1.5,1.6L33.3,87.2z M30.2,86c0.5,0,1-0.1,1.4-0.3l-1.7-1.5l1.5-1.7
					l1.7,1.6c0.2-0.4,0.3-0.9,0.3-1.4v0c0-0.5-0.1-0.9-0.2-1.3c-0.2-0.4-0.4-0.8-0.7-1.1c-0.3-0.3-0.6-0.5-1-0.7
					c-0.4-0.2-0.8-0.3-1.3-0.3c-0.5,0-0.9,0.1-1.3,0.3c-0.4,0.2-0.7,0.4-1,0.7c-0.3,0.3-0.5,0.7-0.6,1c-0.2,0.4-0.2,0.8-0.2,1.3v0
					c0,0.5,0.1,0.9,0.2,1.3c0.2,0.4,0.4,0.8,0.7,1.1c0.3,0.3,0.6,0.5,1,0.7C29.3,85.9,29.7,86,30.2,86z"/>
				<path fill="#FFFFFF" d="M43,88.1c-1.4,0-2.5-0.4-3.3-1.2c-0.8-0.8-1.2-2-1.2-3.5v-6h2.3v6c0,0.9,0.2,1.5,0.6,2
					c0.4,0.4,1,0.7,1.7,0.7c0.7,0,1.3-0.2,1.7-0.6c0.4-0.4,0.6-1.1,0.6-1.9v-6h2.3v5.9c0,0.8-0.1,1.5-0.3,2.1
					c-0.2,0.6-0.5,1.1-0.9,1.5c-0.4,0.4-0.9,0.7-1.5,0.9C44.4,88,43.7,88.1,43,88.1z"/>
				<path fill="#FFFFFF" d="M50.8,77.4h7.9v2.1h-5.6v2.1h5v2.1h-5v2.2h5.7V88h-8V77.4z M55.2,73.9l2,0.9l-1.9,1.8h-1.7L55.2,73.9z"
					/>
			</g>
		</g>
	</g>
	<g>
		<g>
			<path fill="#FFFFFF" d="M138.9,60.8h4.3c0.6,0,1.2,0.1,1.7,0.3c0.5,0.2,0.9,0.4,1.3,0.7c0.3,0.3,0.6,0.7,0.8,1.2
				c0.2,0.4,0.3,0.9,0.3,1.5v0c0,0.6-0.1,1.1-0.3,1.6c-0.2,0.5-0.5,0.8-0.9,1.2c-0.4,0.3-0.8,0.5-1.4,0.7c-0.5,0.2-1.1,0.2-1.7,0.2
				h-1.8v3.2h-2.3V60.8z M143,66.1c0.6,0,1-0.2,1.4-0.5c0.3-0.3,0.5-0.7,0.5-1.1v0c0-0.5-0.2-0.9-0.5-1.2s-0.8-0.4-1.4-0.4h-1.8v3.2
				H143z"/>
			<path fill="#FFFFFF" d="M149.7,60.8h4.8c1.3,0,2.4,0.4,3.1,1.1c0.6,0.6,0.9,1.4,0.9,2.4v0c0,0.9-0.2,1.5-0.6,2.1
				c-0.4,0.5-1,0.9-1.6,1.2l2.6,3.8h-2.7l-2.3-3.4h0H152v3.4h-2.3V60.8z M154.4,65.9c0.6,0,1-0.1,1.3-0.4c0.3-0.3,0.5-0.6,0.5-1.1v0
				c0-0.5-0.2-0.9-0.5-1.1c-0.3-0.3-0.8-0.4-1.3-0.4H152v3H154.4z"/>
			<path fill="#FFFFFF" d="M166.5,71.5c-0.8,0-1.6-0.1-2.2-0.4s-1.3-0.7-1.8-1.2c-0.5-0.5-0.9-1.1-1.2-1.7c-0.3-0.7-0.4-1.4-0.4-2.1
				v0c0-0.8,0.1-1.5,0.4-2.1c0.3-0.7,0.7-1.2,1.2-1.7c0.5-0.5,1.1-0.9,1.8-1.2c0.7-0.3,1.4-0.4,2.3-0.4c0.8,0,1.6,0.1,2.2,0.4
				c0.7,0.3,1.3,0.7,1.8,1.2c0.5,0.5,0.9,1.1,1.2,1.7c0.3,0.7,0.4,1.4,0.4,2.1v0c0,0.8-0.1,1.5-0.4,2.1c-0.3,0.7-0.7,1.2-1.2,1.7
				s-1.1,0.9-1.8,1.2C168,71.4,167.3,71.5,166.5,71.5z M166.5,69.4c0.5,0,0.9-0.1,1.3-0.3c0.4-0.2,0.7-0.4,1-0.7
				c0.3-0.3,0.5-0.7,0.6-1c0.2-0.4,0.2-0.8,0.2-1.3v0c0-0.5-0.1-0.9-0.2-1.3c-0.2-0.4-0.4-0.8-0.7-1.1c-0.3-0.3-0.6-0.5-1-0.7
				c-0.4-0.2-0.8-0.3-1.3-0.3c-0.5,0-0.9,0.1-1.3,0.3c-0.4,0.2-0.7,0.4-1,0.7c-0.3,0.3-0.5,0.6-0.6,1c-0.2,0.4-0.2,0.8-0.2,1.3v0
				c0,0.5,0.1,0.9,0.2,1.3c0.2,0.4,0.4,0.8,0.7,1.1c0.3,0.3,0.6,0.5,1,0.7S166,69.4,166.5,69.4z"/>
			<path fill="#FFFFFF" d="M174.9,60.8h4.1c0.8,0,1.6,0.1,2.3,0.4c0.7,0.3,1.3,0.6,1.8,1.1c0.5,0.5,0.9,1,1.2,1.7
				c0.3,0.6,0.4,1.3,0.4,2.1v0c0,0.7-0.1,1.4-0.4,2.1c-0.3,0.6-0.7,1.2-1.2,1.7c-0.5,0.5-1.1,0.8-1.8,1.1c-0.7,0.3-1.4,0.4-2.3,0.4
				h-4.1V60.8z M179,69.2c0.5,0,0.9-0.1,1.3-0.2c0.4-0.2,0.7-0.4,1-0.6c0.3-0.3,0.5-0.6,0.6-1c0.2-0.4,0.2-0.8,0.2-1.3v0
				c0-0.5-0.1-0.9-0.2-1.3c-0.2-0.4-0.4-0.7-0.6-1c-0.3-0.3-0.6-0.5-1-0.7c-0.4-0.2-0.8-0.2-1.3-0.2h-1.8v6.4H179z"/>
			<path fill="#FFFFFF" d="M191.8,71.5c-1.4,0-2.5-0.4-3.3-1.2c-0.8-0.8-1.2-2-1.2-3.5v-6h2.3v6c0,0.9,0.2,1.5,0.6,1.9
				c0.4,0.4,1,0.7,1.7,0.7c0.7,0,1.3-0.2,1.7-0.6c0.4-0.4,0.6-1.1,0.6-1.9v-6h2.3v5.9c0,0.8-0.1,1.5-0.3,2.1
				c-0.2,0.6-0.5,1.1-0.9,1.5c-0.4,0.4-0.9,0.7-1.5,0.9C193.2,71.4,192.5,71.5,191.8,71.5z"/>
			<path fill="#FFFFFF" d="M202,71.5c-0.8,0-1.5-0.2-2.1-0.5c-0.6-0.3-1-0.7-1.4-1.1l1.5-1.6c0.3,0.3,0.6,0.6,0.9,0.8
				c0.3,0.2,0.6,0.3,1,0.3c0.4,0,0.8-0.1,1-0.4c0.3-0.3,0.4-0.7,0.4-1.3v-6.8h2.4v6.9c0,0.6-0.1,1.2-0.3,1.6
				c-0.2,0.5-0.4,0.9-0.7,1.2c-0.3,0.3-0.7,0.6-1.2,0.7C203.1,71.4,202.5,71.5,202,71.5z"/>
			<path fill="#FFFFFF" d="M213.9,71.5c-0.8,0-1.6-0.1-2.2-0.4s-1.3-0.7-1.8-1.2c-0.5-0.5-0.9-1.1-1.2-1.7c-0.3-0.7-0.4-1.4-0.4-2.1
				v0c0-0.8,0.1-1.5,0.4-2.1c0.3-0.7,0.7-1.2,1.2-1.7c0.5-0.5,1.1-0.9,1.8-1.2c0.7-0.3,1.4-0.4,2.3-0.4c0.8,0,1.6,0.1,2.2,0.4
				c0.7,0.3,1.3,0.7,1.8,1.2c0.5,0.5,0.9,1.1,1.2,1.7c0.3,0.7,0.4,1.4,0.4,2.1v0c0,0.8-0.1,1.5-0.4,2.1c-0.3,0.7-0.7,1.2-1.2,1.7
				c-0.5,0.5-1.1,0.9-1.8,1.2C215.5,71.4,214.8,71.5,213.9,71.5z M214,69.4c0.5,0,0.9-0.1,1.3-0.3c0.4-0.2,0.7-0.4,1-0.7
				c0.3-0.3,0.5-0.7,0.6-1c0.2-0.4,0.2-0.8,0.2-1.3v0c0-0.5-0.1-0.9-0.2-1.3c-0.2-0.4-0.4-0.8-0.7-1.1c-0.3-0.3-0.6-0.5-1-0.7
				c-0.4-0.2-0.8-0.3-1.3-0.3c-0.5,0-0.9,0.1-1.3,0.3c-0.4,0.2-0.7,0.4-1,0.7c-0.3,0.3-0.5,0.6-0.6,1c-0.2,0.4-0.2,0.8-0.2,1.3v0
				c0,0.5,0.1,0.9,0.2,1.3c0.2,0.4,0.4,0.8,0.7,1.1c0.3,0.3,0.6,0.5,1,0.7S213.5,69.4,214,69.4z"/>
		</g>
	</g>
	<g>
		<g>
			<path fill="#FFFFFF" d="M248.3,36h7.9v2.1h-5.6v2.1h5v2.1h-5v2.2h5.7v2.1h-8V36z"/>
			<path fill="#FFFFFF" d="M259.2,36h2.3v8.5h5.3v2.1h-7.6V36z"/>
		</g>
	</g>
	<g>
		<g>
			<path fill="#FFFFFF" d="M292.8,72.6h6.5v1.7h-4.6V76h4.1v1.7h-4.1v1.8h4.7v1.7h-6.6V72.6z"/>
			<path fill="#FFFFFF" d="M301.7,72.6h1.8l4.1,5.3v-5.3h1.9v8.7h-1.6l-4.2-5.5v5.5h-1.9V72.6z"/>
			<path fill="#FFFFFF" d="M316.2,81.4c-0.6,0-1.2-0.1-1.8-0.3c-0.5-0.2-1-0.5-1.4-0.9c-0.4-0.4-0.7-0.9-0.9-1.4
				c-0.2-0.5-0.3-1.1-0.3-1.7v0c0-0.6,0.1-1.2,0.3-1.7c0.2-0.5,0.5-1,0.9-1.4c0.4-0.4,0.9-0.7,1.4-1c0.6-0.2,1.2-0.4,1.8-0.4
				c0.4,0,0.8,0,1.1,0.1c0.3,0.1,0.6,0.2,0.9,0.3c0.3,0.1,0.5,0.3,0.8,0.4c0.2,0.2,0.4,0.3,0.6,0.5l-1.2,1.4c-0.3-0.3-0.7-0.5-1-0.7
				c-0.4-0.2-0.7-0.3-1.2-0.3c-0.4,0-0.7,0.1-1,0.2c-0.3,0.1-0.6,0.3-0.8,0.6c-0.2,0.2-0.4,0.5-0.5,0.9c-0.1,0.3-0.2,0.7-0.2,1v0
				c0,0.4,0.1,0.7,0.2,1.1c0.1,0.3,0.3,0.6,0.5,0.9c0.2,0.2,0.5,0.4,0.8,0.6s0.6,0.2,1,0.2c0.5,0,0.9-0.1,1.3-0.3
				c0.3-0.2,0.7-0.4,1-0.7l1.2,1.2c-0.2,0.2-0.5,0.5-0.7,0.6c-0.2,0.2-0.5,0.4-0.8,0.5c-0.3,0.1-0.6,0.2-0.9,0.3
				C317,81.3,316.6,81.4,316.2,81.4z"/>
			<path fill="#FFFFFF" d="M325.5,81.4c-1.2,0-2.1-0.3-2.7-1c-0.7-0.6-1-1.6-1-2.9v-4.9h1.9v4.9c0,0.7,0.2,1.2,0.5,1.6
				c0.3,0.4,0.8,0.5,1.4,0.5c0.6,0,1-0.2,1.4-0.5c0.3-0.3,0.5-0.9,0.5-1.6v-5h1.9v4.9c0,0.7-0.1,1.2-0.3,1.7
				c-0.2,0.5-0.4,0.9-0.8,1.2c-0.3,0.3-0.7,0.6-1.2,0.7C326.6,81.3,326,81.4,325.5,81.4z"/>
			<path fill="#FFFFFF" d="M331.8,72.6h6.5v1.7h-4.6V76h4.1v1.7h-4.1v1.8h4.7v1.7h-6.6V72.6z"/>
			<path fill="#FFFFFF" d="M340.7,72.6h1.8l4.1,5.3v-5.3h1.9v8.7h-1.6l-4.2-5.5v5.5h-1.9V72.6z"/>
			<path fill="#FFFFFF" d="M353.1,74.3h-2.6v-1.8h7.2v1.8H355v6.9h-1.9V74.3z"/>
			<path fill="#FFFFFF" d="M359.7,72.6h4c1.1,0,1.9,0.3,2.5,0.9c0.5,0.5,0.7,1.2,0.7,2v0c0,0.7-0.2,1.3-0.5,1.7
				c-0.3,0.4-0.8,0.8-1.3,1l2.1,3.1H365l-1.9-2.8h0h-1.5v2.8h-1.9V72.6z M363.6,76.8c0.5,0,0.8-0.1,1.1-0.3c0.3-0.2,0.4-0.5,0.4-0.9
				v0c0-0.4-0.1-0.7-0.4-0.9c-0.3-0.2-0.6-0.3-1.1-0.3h-1.9v2.5H363.6z"/>
			<path fill="#FFFFFF" d="M373.5,81.4c-0.7,0-1.3-0.1-1.8-0.4c-0.6-0.2-1-0.6-1.5-1c-0.4-0.4-0.7-0.9-1-1.4
				c-0.2-0.5-0.3-1.1-0.3-1.7v0c0-0.6,0.1-1.2,0.3-1.7c0.2-0.5,0.6-1,1-1.4c0.4-0.4,0.9-0.7,1.5-1c0.6-0.2,1.2-0.4,1.8-0.4
				c0.7,0,1.3,0.1,1.8,0.4c0.6,0.2,1,0.6,1.5,1c0.4,0.4,0.7,0.9,1,1.4c0.2,0.5,0.3,1.1,0.3,1.7v0c0,0.6-0.1,1.2-0.3,1.7
				c-0.2,0.5-0.5,1-1,1.4c-0.4,0.4-0.9,0.7-1.5,1C374.8,81.2,374.2,81.4,373.5,81.4z M373.5,79.6c0.4,0,0.7-0.1,1.1-0.2
				c0.3-0.1,0.6-0.3,0.8-0.6c0.2-0.2,0.4-0.5,0.5-0.9c0.1-0.3,0.2-0.7,0.2-1v0c0-0.4-0.1-0.7-0.2-1.1c-0.1-0.3-0.3-0.6-0.5-0.9
				c-0.2-0.2-0.5-0.4-0.8-0.6c-0.3-0.1-0.7-0.2-1.1-0.2c-0.4,0-0.7,0.1-1.1,0.2c-0.3,0.1-0.6,0.3-0.8,0.6c-0.2,0.2-0.4,0.5-0.5,0.9
				c-0.1,0.3-0.2,0.7-0.2,1v0c0,0.4,0.1,0.7,0.2,1.1c0.1,0.3,0.3,0.6,0.5,0.9c0.2,0.2,0.5,0.4,0.8,0.6S373.1,79.6,373.5,79.6z"/>
			<path fill="#FFFFFF" d="M381.5,76.3L381.5,76.3c0.8-0.1,1.4-0.2,1.7-0.4c0.3-0.2,0.5-0.5,0.5-0.8v0c0-0.3-0.1-0.5-0.3-0.7
				c-0.2-0.2-0.5-0.2-0.8-0.2c-0.3,0-0.7,0.1-1,0.2c-0.3,0.1-0.6,0.4-0.9,0.6l-1.1-1.2c0.4-0.4,0.8-0.7,1.3-1
				c0.5-0.2,1.1-0.4,1.7-0.4c0.4,0,0.9,0.1,1.2,0.2c0.4,0.1,0.7,0.3,0.9,0.5c0.3,0.2,0.5,0.5,0.6,0.8c0.1,0.3,0.2,0.7,0.2,1.1v0
				c0,0.4-0.1,0.7-0.2,1c-0.1,0.3-0.3,0.5-0.5,0.7c-0.2,0.2-0.5,0.4-0.8,0.5c-0.3,0.1-0.6,0.2-0.9,0.3l-0.1,0.8h-1.3L381.5,76.3z
				 M381.4,79.2h2v2h-2V79.2z"/>
		</g>
	</g>
	<g>
		<g>
			<path fill="#FFFFFF" d="M93.2,98.3H90v-2.1h8.7v2.1h-3.2v8.4h-2.3V98.3z"/>
			<path fill="#FFFFFF" d="M101.2,96.1h7.9v2.1h-5.6v2.1h5v2.1h-5v2.2h5.7v2.1h-8V96.1z"/>
		</g>
	</g>
</g>
</svg>
