<?xml version="1.0" encoding="utf-8"?>
<!-- Generator: Adobe Illustrator 17.0.0, SVG Export Plug-In . SVG Version: 6.00 Build 0)  -->
<!DOCTYPE svg PUBLIC "-//W3C//DTD SVG 1.1//EN" "http://www.w3.org/Graphics/SVG/1.1/DTD/svg11.dtd">
<svg version="1.1" id="Layer_1" xmlns="http://www.w3.org/2000/svg" xmlns:xlink="http://www.w3.org/1999/xlink" x="0px" y="0px"
	 width="400px" height="150px" viewBox="0 0 400 150" enable-background="new 0 0 400 150" xml:space="preserve">
<g>
	<g>
		<path fill="#FFFFFF" d="M141.313,61.647h4.148c0.609,0,1.153,0.085,1.632,0.254c0.479,0.169,0.885,0.409,1.218,0.718
			c0.334,0.31,0.59,0.68,0.769,1.11c0.179,0.43,0.268,0.906,0.268,1.429v0.029c0,0.59-0.106,1.107-0.319,1.552
			c-0.213,0.445-0.505,0.817-0.878,1.117c-0.372,0.3-0.807,0.525-1.305,0.674c-0.498,0.15-1.032,0.225-1.602,0.225h-1.697V71.8
			h-2.233V61.647z M145.316,66.767c0.561,0,0.996-0.147,1.305-0.442c0.309-0.295,0.464-0.66,0.464-1.095v-0.029
			c0-0.503-0.162-0.885-0.486-1.146c-0.324-0.261-0.766-0.391-1.327-0.391h-1.726v3.104H145.316z"/>
		<path fill="#FFFFFF" d="M151.727,61.647h4.641c1.286,0,2.272,0.343,2.959,1.03c0.58,0.58,0.87,1.354,0.87,2.321v0.029
			c0,0.822-0.201,1.492-0.602,2.009c-0.401,0.518-0.926,0.897-1.574,1.139l2.48,3.626h-2.611l-2.176-3.249h-0.029h-1.726V71.8
			h-2.233V61.647z M156.223,66.578c0.551,0,0.974-0.13,1.269-0.392c0.295-0.261,0.442-0.609,0.442-1.044v-0.029
			c0-0.483-0.155-0.846-0.464-1.088c-0.31-0.242-0.74-0.362-1.291-0.362h-2.219v2.915H156.223z"/>
		<path fill="#FFFFFF" d="M167.87,71.974c-0.783,0-1.504-0.138-2.161-0.413c-0.658-0.275-1.226-0.648-1.704-1.117
			c-0.479-0.469-0.851-1.02-1.117-1.653c-0.266-0.633-0.399-1.313-0.399-2.038v-0.029c0-0.725,0.135-1.405,0.406-2.038
			c0.27-0.633,0.645-1.189,1.124-1.668c0.479-0.479,1.049-0.856,1.711-1.131c0.662-0.276,1.385-0.414,2.168-0.414
			c0.783,0,1.503,0.138,2.161,0.414c0.657,0.275,1.226,0.648,1.704,1.117c0.479,0.469,0.851,1.02,1.117,1.654
			c0.266,0.633,0.399,1.313,0.399,2.038v0.029c0,0.725-0.136,1.405-0.406,2.038c-0.271,0.633-0.646,1.19-1.124,1.668
			c-0.479,0.479-1.049,0.856-1.711,1.131C169.375,71.836,168.653,71.974,167.87,71.974z M167.899,69.914
			c0.445,0,0.856-0.082,1.233-0.247c0.377-0.164,0.698-0.391,0.964-0.681c0.266-0.29,0.474-0.626,0.624-1.008
			s0.225-0.791,0.225-1.226v-0.029c0-0.435-0.075-0.846-0.225-1.233c-0.15-0.386-0.362-0.725-0.638-1.015
			c-0.276-0.29-0.602-0.52-0.979-0.689c-0.377-0.169-0.788-0.254-1.233-0.254c-0.455,0-0.868,0.082-1.24,0.247
			c-0.373,0.165-0.691,0.392-0.957,0.682c-0.266,0.29-0.474,0.626-0.624,1.008c-0.15,0.382-0.225,0.79-0.225,1.225v0.029
			c0,0.435,0.075,0.846,0.225,1.233c0.15,0.387,0.362,0.725,0.638,1.015c0.276,0.29,0.6,0.52,0.972,0.689
			C167.031,69.83,167.444,69.914,167.899,69.914z"/>
		<path fill="#FFFFFF" d="M175.992,61.647h3.959c0.793,0,1.52,0.128,2.183,0.384c0.662,0.256,1.233,0.611,1.711,1.066
			c0.479,0.455,0.848,0.989,1.11,1.603c0.261,0.614,0.392,1.279,0.392,1.994v0.029c0,0.715-0.131,1.383-0.392,2.001
			c-0.261,0.619-0.631,1.155-1.11,1.61c-0.479,0.454-1.049,0.812-1.711,1.073c-0.663,0.261-1.39,0.392-2.183,0.392h-3.959V61.647z
			 M179.951,69.784c0.454,0,0.87-0.072,1.247-0.217c0.377-0.145,0.698-0.353,0.965-0.624c0.266-0.271,0.474-0.59,0.624-0.958
			c0.15-0.367,0.225-0.778,0.225-1.233v-0.029c0-0.445-0.075-0.856-0.225-1.233c-0.15-0.377-0.358-0.701-0.624-0.971
			c-0.266-0.271-0.587-0.481-0.965-0.631s-0.793-0.225-1.247-0.225h-1.726v6.12H179.951z"/>
		<path fill="#FFFFFF" d="M192.294,71.959c-1.363,0-2.437-0.377-3.22-1.131c-0.783-0.754-1.175-1.88-1.175-3.379v-5.801h2.233v5.743
			c0,0.832,0.193,1.458,0.58,1.878c0.387,0.421,0.923,0.631,1.61,0.631c0.686,0,1.223-0.203,1.61-0.609
			c0.387-0.406,0.58-1.015,0.58-1.828v-5.816h2.234v5.729c0,0.774-0.104,1.446-0.312,2.016c-0.208,0.571-0.505,1.047-0.892,1.429
			c-0.387,0.382-0.856,0.667-1.407,0.856C193.585,71.865,192.971,71.959,192.294,71.959z"/>
		<path fill="#FFFFFF" d="M202.055,71.945c-0.793,0-1.458-0.15-1.994-0.45c-0.537-0.299-0.979-0.657-1.327-1.073l1.407-1.567
			c0.29,0.319,0.583,0.568,0.878,0.747c0.295,0.179,0.621,0.268,0.979,0.268c0.425,0,0.758-0.133,1-0.399
			c0.241-0.266,0.362-0.694,0.362-1.284v-6.541h2.292v6.643c0,0.609-0.083,1.136-0.247,1.581c-0.165,0.445-0.401,0.822-0.71,1.132
			c-0.31,0.31-0.689,0.544-1.139,0.703C203.106,71.865,202.606,71.945,202.055,71.945z"/>
		<path fill="#FFFFFF" d="M213.585,71.974c-0.783,0-1.504-0.138-2.161-0.413c-0.657-0.275-1.226-0.648-1.704-1.117
			c-0.479-0.469-0.851-1.02-1.117-1.653s-0.399-1.313-0.399-2.038v-0.029c0-0.725,0.136-1.405,0.406-2.038
			c0.271-0.633,0.646-1.189,1.124-1.668c0.479-0.479,1.049-0.856,1.711-1.131c0.662-0.276,1.386-0.414,2.168-0.414
			c0.783,0,1.503,0.138,2.161,0.414c0.657,0.275,1.226,0.648,1.704,1.117c0.479,0.469,0.85,1.02,1.116,1.654
			c0.266,0.633,0.399,1.313,0.399,2.038v0.029c0,0.725-0.136,1.405-0.406,2.038c-0.271,0.633-0.646,1.19-1.124,1.668
			c-0.479,0.479-1.049,0.856-1.711,1.131C215.091,71.836,214.369,71.974,213.585,71.974z M213.614,69.914
			c0.445,0,0.856-0.082,1.233-0.247c0.377-0.164,0.698-0.391,0.964-0.681c0.266-0.29,0.473-0.626,0.623-1.008
			c0.15-0.382,0.225-0.791,0.225-1.226v-0.029c0-0.435-0.075-0.846-0.225-1.233c-0.15-0.386-0.362-0.725-0.638-1.015
			c-0.276-0.29-0.602-0.52-0.979-0.689c-0.377-0.169-0.789-0.254-1.233-0.254c-0.455,0-0.868,0.082-1.24,0.247
			c-0.372,0.165-0.691,0.392-0.957,0.682c-0.266,0.29-0.474,0.626-0.624,1.008c-0.15,0.382-0.225,0.79-0.225,1.225v0.029
			c0,0.435,0.074,0.846,0.225,1.233c0.15,0.387,0.363,0.725,0.639,1.015s0.6,0.52,0.971,0.689
			C212.747,69.83,213.16,69.914,213.614,69.914z"/>
	</g>
</g>
<g>
	<g>
		<path fill="#FFFFFF" d="M246.678,37.824h7.644v1.987h-5.439v2.06h4.786v1.987h-4.786v2.132h5.511v1.987h-7.716V37.824z"/>
		<path fill="#FFFFFF" d="M257.121,37.824h2.233v8.136h5.062v2.016h-7.295V37.824z"/>
	</g>
</g>
<g>
	<g>
		<path fill="#FFFFFF" d="M297.29,71.169h7.643v1.987h-5.439v2.06h4.786v1.987h-4.786v2.132h5.511v1.988h-7.716V71.169z"/>
		<path fill="#FFFFFF" d="M306.862,71.169h2.465l2.654,7.15l2.655-7.15h2.408l-4.105,10.225h-1.972L306.862,71.169z"/>
		<path fill="#FFFFFF" d="M319.335,71.169h7.643v1.987h-5.439v2.06h4.786v1.987h-4.786v2.132h5.511v1.988h-7.716V71.169z"/>
		<path fill="#FFFFFF" d="M329.778,71.169h2.06l4.758,6.251v-6.251h2.204v10.152h-1.9l-4.916-6.454v6.454h-2.205V71.169z"/>
		<path fill="#FFFFFF" d="M344.325,73.229h-3.089v-2.06h8.412v2.06h-3.089v8.093h-2.233V73.229z"/>
		<path fill="#FFFFFF" d="M357.016,81.496c-0.783,0-1.504-0.138-2.161-0.413c-0.658-0.275-1.226-0.648-1.704-1.117
			c-0.479-0.469-0.852-1.02-1.117-1.653c-0.266-0.634-0.399-1.313-0.399-2.038v-0.029c0-0.725,0.136-1.405,0.406-2.038
			c0.271-0.633,0.645-1.189,1.124-1.668c0.479-0.479,1.049-0.856,1.711-1.131c0.662-0.276,1.386-0.414,2.169-0.414
			c0.783,0,1.503,0.138,2.161,0.414c0.657,0.275,1.226,0.648,1.704,1.117c0.479,0.469,0.851,1.02,1.117,1.654
			c0.266,0.633,0.399,1.313,0.399,2.038v0.029c0,0.725-0.135,1.405-0.406,2.038c-0.271,0.633-0.646,1.19-1.124,1.668
			c-0.479,0.479-1.05,0.856-1.711,1.131C358.521,81.358,357.799,81.496,357.016,81.496z M357.045,79.436
			c0.445,0,0.856-0.082,1.233-0.246c0.377-0.164,0.698-0.392,0.964-0.682s0.474-0.626,0.623-1.008
			c0.15-0.382,0.225-0.79,0.225-1.226v-0.029c0-0.435-0.075-0.846-0.225-1.233c-0.15-0.386-0.362-0.725-0.637-1.015
			c-0.276-0.29-0.602-0.52-0.979-0.689c-0.377-0.169-0.788-0.254-1.233-0.254c-0.455,0-0.868,0.082-1.24,0.247
			c-0.373,0.165-0.691,0.392-0.957,0.682c-0.266,0.29-0.474,0.626-0.624,1.008c-0.15,0.382-0.225,0.79-0.225,1.225v0.029
			c0,0.435,0.074,0.846,0.225,1.233c0.15,0.387,0.362,0.725,0.638,1.015c0.275,0.29,0.6,0.52,0.972,0.689
			C356.177,79.352,356.59,79.436,357.045,79.436z"/>
		<path fill="#FFFFFF" d="M366.457,75.521l0.073-0.073c0.918-0.039,1.572-0.173,1.958-0.401c0.386-0.229,0.58-0.537,0.58-0.927
			v-0.029c0-0.331-0.117-0.586-0.349-0.766c-0.232-0.18-0.561-0.27-0.986-0.27c-0.406,0-0.786,0.082-1.139,0.247
			c-0.353,0.165-0.698,0.416-1.037,0.754l-1.334-1.461c0.426-0.461,0.925-0.835,1.501-1.123c0.575-0.288,1.259-0.432,2.052-0.432
			c0.522,0,0.998,0.065,1.426,0.196c0.429,0.13,0.796,0.324,1.103,0.58c0.307,0.256,0.545,0.571,0.714,0.943
			c0.168,0.373,0.252,0.8,0.252,1.284v0.029c0,0.464-0.074,0.861-0.223,1.189c-0.149,0.329-0.351,0.609-0.605,0.841
			c-0.255,0.232-0.555,0.419-0.902,0.559c-0.345,0.14-0.717,0.249-1.113,0.326l-0.16,0.885h-1.479L366.457,75.521z M366.298,79.001
			h2.335v2.321h-2.335V79.001z"/>
	</g>
</g>
<g>
	<g>
		<path fill="#FFFFFF" d="M97.291,97.745h-3.089v-2.06h8.412v2.06h-3.089v8.093h-2.234V97.745z"/>
		<path fill="#FFFFFF" d="M105.05,95.685h7.643v1.987h-5.439v2.06h4.786v1.987h-4.786v2.132h5.512v1.987h-7.716V95.685z"/>
	</g>
</g>
<g>
	<path fill="#FFFFFF" d="M44.059,115.638c-18.888,0-34.255-15.367-34.255-34.255c0-18.888,15.367-34.255,34.255-34.255
		s34.255,15.367,34.255,34.255C78.314,100.271,62.947,115.638,44.059,115.638z M44.059,50.604
		c-16.971,0-30.779,13.807-30.779,30.779c0,16.972,13.807,30.779,30.779,30.779c16.972,0,30.779-13.807,30.779-30.779
		C74.838,64.411,61.03,50.604,44.059,50.604z"/>
	<g>
		<path fill="#FFFFFF" d="M103.63,123.353c-12.213,0-22.15-9.937-22.15-22.15c0-12.213,9.936-22.15,22.15-22.15
			s22.15,9.936,22.15,22.15C125.779,113.417,115.843,123.353,103.63,123.353z M103.63,82.53c-10.297,0-18.673,8.377-18.673,18.673
			c0,10.297,8.377,18.674,18.673,18.674c10.297,0,18.674-8.377,18.674-18.674C122.303,90.907,113.926,82.53,103.63,82.53z"/>
	</g>
	<g>
		<path fill="#FFFFFF" d="M178.847,119.881c-28.668,0-51.992-23.323-51.992-51.992c0-28.668,23.323-51.991,51.992-51.991
			c28.668,0,51.991,23.323,51.991,51.991C230.839,96.558,207.516,119.881,178.847,119.881z M178.847,19.375
			c-26.751,0-48.515,21.764-48.515,48.515c0,26.752,21.764,48.516,48.515,48.516c26.751,0,48.515-21.764,48.515-48.516
			C227.363,41.138,205.599,19.375,178.847,19.375z"/>
	</g>
	<g>
		<path fill="#FFFFFF" d="M255.17,65.318c-12.213,0-22.15-9.937-22.15-22.15c0-12.213,9.936-22.149,22.15-22.149
			s22.15,9.936,22.15,22.149C277.319,55.381,267.383,65.318,255.17,65.318z M255.17,24.495c-10.297,0-18.674,8.377-18.674,18.673
			c0,10.297,8.377,18.674,18.674,18.674c10.297,0,18.673-8.377,18.673-18.674C273.843,32.871,265.467,24.495,255.17,24.495z"/>
	</g>
	<g>
		<path fill="#FFFFFF" d="M333.349,23.947c29.596,0,53.675,24.078,53.675,53.675s-24.078,53.675-53.675,53.675
			s-53.675-24.078-53.675-53.675S303.753,23.947,333.349,23.947 M333.349,20.471c-31.564,0-57.151,25.587-57.151,57.151
			c0,31.564,25.587,57.151,57.151,57.151c31.564,0,57.151-25.587,57.151-57.151C390.5,46.058,364.913,20.471,333.349,20.471
			L333.349,20.471z"/>
	</g>
	<g>
		<path fill="#FFFFFF" d="M25.91,87.942c-0.522,0-0.998-0.065-1.426-0.195s-0.797-0.324-1.104-0.58
			c-0.307-0.256-0.545-0.57-0.713-0.943c-0.168-0.372-0.252-0.8-0.252-1.283v-0.029c0-0.464,0.074-0.861,0.223-1.19
			c0.149-0.328,0.35-0.609,0.605-0.841c0.254-0.232,0.555-0.418,0.901-0.559c0.346-0.14,0.717-0.248,1.114-0.326l0.159-0.884h1.479
			l0.334,2.349l-0.072,0.072c-0.919,0.039-1.572,0.173-1.958,0.401c-0.387,0.229-0.58,0.538-0.58,0.927v0.029
			c0,0.331,0.116,0.586,0.348,0.766c0.232,0.18,0.56,0.27,0.986,0.27c0.406,0,0.785-0.082,1.138-0.246s0.698-0.415,1.037-0.754
			l1.334,1.462c-0.426,0.461-0.926,0.835-1.501,1.123C27.387,87.799,26.702,87.942,25.91,87.942z M25.054,77.659h2.335v2.32h-2.335
			V77.659z"/>
		<path fill="#FFFFFF" d="M39.659,87.115c-0.435,0.28-0.904,0.495-1.407,0.646c-0.503,0.15-1.039,0.225-1.61,0.225
			c-0.783,0-1.504-0.138-2.161-0.413c-0.658-0.275-1.226-0.648-1.704-1.117c-0.479-0.469-0.851-1.02-1.117-1.653
			c-0.266-0.634-0.399-1.313-0.399-2.038v-0.029c0-0.726,0.135-1.405,0.406-2.038c0.27-0.633,0.645-1.189,1.124-1.668
			c0.479-0.479,1.049-0.856,1.711-1.131c0.662-0.276,1.385-0.414,2.168-0.414c0.783,0,1.503,0.138,2.161,0.414
			c0.657,0.275,1.226,0.648,1.704,1.117c0.479,0.469,0.851,1.02,1.117,1.654c0.266,0.633,0.399,1.313,0.399,2.038v0.029
			c0,0.531-0.078,1.044-0.232,1.537c-0.155,0.493-0.377,0.952-0.667,1.377l1.044,0.885l-1.421,1.581L39.659,87.115z M36.671,85.926
			c0.474,0,0.919-0.092,1.334-0.275l-1.653-1.407l1.421-1.595l1.668,1.508c0.183-0.406,0.275-0.87,0.275-1.393v-0.029
			c0-0.435-0.075-0.846-0.225-1.233c-0.15-0.386-0.362-0.725-0.638-1.015c-0.276-0.29-0.602-0.52-0.979-0.689
			c-0.377-0.169-0.788-0.254-1.233-0.254c-0.455,0-0.868,0.082-1.24,0.246c-0.373,0.165-0.691,0.392-0.957,0.682
			c-0.266,0.29-0.474,0.626-0.624,1.008c-0.15,0.382-0.225,0.79-0.225,1.226v0.029c0,0.435,0.075,0.846,0.225,1.233
			c0.15,0.387,0.362,0.725,0.638,1.015c0.276,0.29,0.6,0.52,0.972,0.689C35.803,85.842,36.217,85.926,36.671,85.926z"/>
		<path fill="#FFFFFF" d="M48.999,87.971c-1.363,0-2.437-0.377-3.22-1.131c-0.783-0.754-1.175-1.88-1.175-3.38v-5.801h2.233v5.743
			c0,0.831,0.193,1.457,0.58,1.878c0.387,0.42,0.923,0.631,1.61,0.631c0.686,0,1.223-0.203,1.61-0.609
			c0.387-0.406,0.58-1.016,0.58-1.827v-5.816h2.234v5.729c0,0.774-0.104,1.446-0.312,2.016c-0.208,0.57-0.505,1.047-0.892,1.428
			c-0.387,0.383-0.856,0.667-1.407,0.856C50.29,87.877,49.676,87.971,48.999,87.971z"/>
		<path fill="#FFFFFF" d="M56.455,77.659h7.643v1.987h-5.439v2.059h4.786v1.988h-4.786v2.132h5.511v1.988h-7.716V77.659z
			 M60.704,74.294l1.9,0.826l-1.856,1.741h-1.682L60.704,74.294z"/>
	</g>
</g>
</svg>
